<svg height="42" viewBox="0 0 110 42" width="110" xmlns="http://www.w3.org/2000/svg"><g fill="none" fill-rule="evenodd"><path d="m0-4h110v50h-110z"/><path d="m38.072 11.409-.708 1.829a.662.662 0 0 1 -1.239-.005l-.918-2.365c-.068.066-.135.132-.201.199-5.4 5.466-5.4 14.361 0 19.827.5.506 1.037.974 1.607 1.4a19.804 19.804 0 0 0 1.46-20.885zm.467-1.205.049-.03a20.877 20.877 0 0 1 -3.15 25.148 20.241 20.241 0 0 1 -14.45 6.061 20.25 20.25 0 0 1 -14.449-6.05c-7.966-8.069-7.966-21.197 0-29.265a20.28 20.28 0 0 1 28.447-.445l1.139-2.937a.663.663 0 0 1 1.239 0l1.293 3.34 3.3 1.309a.678.678 0 0 1 0 1.256l-3.3 1.309zm-7.21-2.742a13.678 13.678 0 0 0 -6.1 3.611c-5.4 5.466-5.4 14.361 0 19.827a13.671 13.671 0 0 0 9.038 4.083 19.898 19.898 0 0 0 1.722-1.874c-.555-.47-1.122-1.096-1.604-1.586-5.739-5.813-5.739-15.272 0-21.085.157-.157.315-.309.476-.459l-.03-.079-3.3-1.31a.678.678 0 0 1 -.202-1.128zm2.624-1.354a19.204 19.204 0 0 0 -2.121-1.682 16.43 16.43 0 0 0 -13.659 4.822c-6.481 6.564-6.481 17.25 0 23.809a16.41 16.41 0 0 0 11.757 4.932l.159.032a19.205 19.205 0 0 0 3.27-2.223 14.535 14.535 0 0 1 -8.75-4.276c-5.74-5.812-5.74-15.271 0-21.084a14.54 14.54 0 0 1 9.344-4.33zm-4.09-2.863a19.21 19.21 0 0 0 -22.583 3.572c-7.558 7.65-7.558 20.1 0 27.75a19.212 19.212 0 0 0 20.794 4.393 17.447 17.447 0 0 1 -10.647-5.154c-6.9-6.98-6.9-18.338 0-25.319a17.462 17.462 0 0 1 12.438-5.242zm2.981 4.717 2.534 1.008c.17.07.304.205.372.375l.995 2.566.994-2.564a.663.663 0 0 1 .377-.381l2.533-1.008-2.534-1.007a.667.667 0 0 1 -.376-.381l-.994-2.567-.995 2.567a.672.672 0 0 1 -.377.381zm26.59 19.245c-1.184.256-2.39.393-3.6.408-1.063 0-1.92-.145-2.575-.436a3.213 3.213 0 0 1 -1.514-1.361 6.261 6.261 0 0 1 -.732-2.118 18.12 18.12 0 0 1 -.204-2.982 18.492 18.492 0 0 1 .204-3c.116-.754.365-1.48.738-2.146a3.167 3.167 0 0 1 1.5-1.36c.648-.284 1.49-.427 2.526-.427a18.64 18.64 0 0 1 3.652.428l-.059 1.261a20.226 20.226 0 0 0 -3.496-.35c-1.425 0-2.367.425-2.828 1.272-.46.848-.689 2.296-.688 4.343-.01.824.031 1.649.126 2.467.073.584.24 1.151.495 1.68.22.474.603.853 1.078 1.069.474.215 1.166.322 2.08.32a17.953 17.953 0 0 0 3.233-.349zm19.114-6.41c0 2.4-.382 4.136-1.146 5.206s-2.153 1.607-4.167 1.612c-2.014 0-3.403-.55-4.167-1.65s-1.146-2.832-1.146-5.198c0-2.361.389-4.116 1.166-5.263s2.156-1.72 4.138-1.719c1.981 0 3.364.57 4.148 1.708.784 1.14 1.175 2.908 1.174 5.304zm-9.091-.038c0 1.968.259 3.383.777 4.244.517.863 1.517 1.293 3 1.292 1.483 0 2.48-.421 2.99-1.263.511-.842.77-2.253.776-4.235 0-1.982-.266-3.425-.796-4.332-.531-.905-1.525-1.359-2.982-1.36-1.457 0-2.448.45-2.972 1.35s-.788 2.335-.793 4.304zm18.63 6.663v-13.444h1.5v13.444zm11.576 0v-13.444h2.798l5.148 12.122h.408v-12.122h1.476v13.444h-2.739l-5.226-12.122h-.369v12.122z" fill="#ee7268" fill-rule="nonzero"/></g></svg>